<?xml version="1.0" encoding="utf-8"?>
<!-- Generator: Adobe Illustrator 23.0.3, SVG Export Plug-In . SVG Version: 6.00 Build 0)  -->
<svg version="1.1" xmlns="http://www.w3.org/2000/svg" xmlns:xlink="http://www.w3.org/1999/xlink" x="0px" y="0px"
	 viewBox="0 0 136.06 136.06" style="enable-background:new 0 0 136.06 136.06;" xml:space="preserve">
<style type="text/css">
	.st0{fill:#BCBCBC;}
	.st1{fill:#00FFB6;}
	.st2{fill:#FFFFFF;}
</style>
<g id="Layer_2">
</g>
<g id="Layer_1">
	<g>
		<g id="XMLID_1_">
			<g>
				<rect x="124.72" y="79.37" width="11.34" height="11.34"/>
				<rect x="124.72" y="68.03" width="11.34" height="11.34"/>
				<rect x="124.72" y="56.69" width="11.34" height="11.34"/>
				<rect x="124.72" y="45.36" width="11.34" height="11.33"/>
				<rect x="113.38" y="102.05" width="11.34" height="11.34"/>
				<rect x="113.38" y="90.71" width="11.34" height="11.34"/>
				<rect x="113.38" y="79.37" class="st0" width="11.34" height="11.34"/>
				<rect x="113.38" y="68.03" width="11.34" height="11.34"/>
				<rect x="113.38" y="56.69" class="st1" width="11.34" height="11.34"/>
				<rect x="113.38" y="45.36" class="st1" width="11.34" height="11.33"/>
				<rect x="113.38" y="34.02" width="11.34" height="11.34"/>
				<rect x="113.38" y="22.68" width="11.34" height="11.34"/>
				<rect x="102.05" y="113.39" width="11.33" height="11.34"/>
				<rect x="102.05" y="102.05" class="st0" width="11.33" height="11.34"/>
				<rect x="102.05" y="90.71" class="st0" width="11.33" height="11.34"/>
				<rect x="102.05" y="79.37" width="11.33" height="11.34"/>
				<rect x="102.05" y="68.03" class="st1" width="11.33" height="11.34"/>
				<rect x="102.05" y="56.69" class="st1" width="11.33" height="11.34"/>
				<rect x="102.05" y="45.36" class="st1" width="11.33" height="11.33"/>
				<rect x="102.05" y="34.02" class="st1" width="11.33" height="11.34"/>
				<rect x="102.05" y="22.68" class="st1" width="11.33" height="11.34"/>
				<rect x="102.05" y="11.34" width="11.33" height="11.34"/>
				<rect x="90.71" y="113.39" width="11.34" height="11.34"/>
				<rect x="90.71" y="102.05" class="st0" width="11.34" height="11.34"/>
				<rect x="90.71" y="90.71" class="st0" width="11.34" height="11.34"/>
				<rect x="90.71" y="79.37" width="11.34" height="11.34"/>
				<rect x="90.71" y="68.03" class="st1" width="11.34" height="11.34"/>
				<rect x="90.71" y="56.69" class="st1" width="11.34" height="11.34"/>
				<rect x="90.71" y="45.36" class="st1" width="11.34" height="11.33"/>
				<rect x="90.71" y="34.02" class="st1" width="11.34" height="11.34"/>
				<rect x="90.71" y="22.68" class="st1" width="11.34" height="11.34"/>
				<rect x="90.71" y="11.34" width="11.34" height="11.34"/>
				<rect x="79.37" y="124.73" width="11.34" height="11.33"/>
				<rect x="79.37" y="113.39" class="st0" width="11.34" height="11.34"/>
				<rect x="79.37" y="102.05" class="st0" width="11.34" height="11.34"/>
				<rect x="79.37" y="90.71" class="st0" width="11.34" height="11.34"/>
				<rect x="79.37" y="79.37" width="11.34" height="11.34"/>
				<rect x="79.37" y="68.03" width="11.34" height="11.34"/>
				<rect x="79.37" y="56.69" class="st1" width="11.34" height="11.34"/>
				<rect x="79.37" y="45.36" class="st1" width="11.34" height="11.33"/>
				<rect x="79.37" y="34.02" class="st1" width="11.34" height="11.34"/>
				<rect x="79.37" y="22.68" class="st1" width="11.34" height="11.34"/>
				<rect x="79.37" y="11.34" class="st1" width="11.34" height="11.34"/>
				<rect x="79.37" y="0" width="11.34" height="11.34"/>
				<rect x="68.03" y="124.73" width="11.34" height="11.33"/>
				<rect x="68.03" y="113.39" class="st0" width="11.34" height="11.34"/>
				<rect x="68.03" y="102.05" class="st0" width="11.34" height="11.34"/>
				<rect x="68.03" y="90.71" width="11.34" height="11.34"/>
				<rect x="68.03" y="79.37" class="st0" width="11.34" height="11.34"/>
				<rect x="68.03" y="68.03" class="st0" width="11.34" height="11.34"/>
				<rect x="68.03" y="56.69" width="11.34" height="11.34"/>
				<rect x="68.03" y="45.36" class="st1" width="11.34" height="11.33"/>
				<rect x="68.03" y="34.02" class="st1" width="11.34" height="11.34"/>
				<rect x="68.03" y="22.68" class="st1" width="11.34" height="11.34"/>
				<rect x="68.03" y="11.34" class="st1" width="11.34" height="11.34"/>
				<rect x="68.03" y="0" width="11.34" height="11.34"/>
				<rect x="56.69" y="124.73" width="11.34" height="11.33"/>
				<rect x="56.69" y="113.39" class="st0" width="11.34" height="11.34"/>
				<polygon class="st2" points="68.03,102.05 68.03,113.39 56.69,113.39 45.35,113.39 34.01,113.39 34.01,102.05 22.68,102.05 
					22.68,90.71 34.01,90.71 45.35,90.71 56.69,90.71 56.69,102.05 				"/>
				<rect x="56.69" y="90.71" width="11.34" height="11.34"/>
				<rect x="56.69" y="79.37" class="st0" width="11.34" height="11.34"/>
				<rect x="56.69" y="68.03" class="st2" width="11.34" height="11.34"/>
				<rect x="56.69" y="56.69" width="11.34" height="11.34"/>
				<rect x="56.69" y="45.36" class="st1" width="11.34" height="11.33"/>
				<polygon class="st2" points="68.03,34.02 68.03,45.36 56.69,45.36 56.69,56.69 45.35,56.69 45.35,45.36 34.01,45.36 
					34.01,34.02 45.35,34.02 45.35,22.68 56.69,22.68 56.69,34.02 				"/>
				<rect x="56.69" y="22.68" class="st1" width="11.34" height="11.34"/>
				<rect x="56.69" y="11.34" class="st1" width="11.34" height="11.34"/>
				<rect x="56.69" y="0" width="11.34" height="11.34"/>
				<rect x="45.35" y="124.73" width="11.34" height="11.33"/>
				<rect x="45.35" y="113.39" class="st0" width="11.34" height="11.34"/>
				<rect x="45.35" y="79.37" width="11.34" height="11.34"/>
				<rect x="45.35" y="68.03" width="11.34" height="11.34"/>
				<rect x="45.35" y="56.69" class="st1" width="11.34" height="11.34"/>
				<rect x="45.35" y="11.34" class="st1" width="11.34" height="11.34"/>
				<rect x="45.35" y="0" width="11.34" height="11.34"/>
				<rect x="34.01" y="113.39" width="11.34" height="11.34"/>
				<rect x="34.01" y="79.37" width="11.34" height="11.34"/>
				<rect x="34.01" y="68.03" class="st1" width="11.34" height="11.34"/>
				<rect x="34.01" y="56.69" class="st1" width="11.34" height="11.34"/>
				<rect x="34.01" y="45.36" class="st1" width="11.34" height="11.33"/>
				<rect x="34.01" y="22.68" class="st1" width="11.34" height="11.34"/>
				<rect x="34.01" y="11.34" width="11.34" height="11.34"/>
				<rect x="22.68" y="113.39" width="11.33" height="11.34"/>
				<rect x="22.68" y="102.05" class="st0" width="11.33" height="11.34"/>
				<rect x="22.68" y="79.37" width="11.33" height="11.34"/>
				<rect x="22.68" y="68.03" class="st1" width="11.33" height="11.34"/>
				<rect x="22.68" y="56.69" class="st1" width="11.33" height="11.34"/>
				<rect x="22.68" y="45.36" class="st1" width="11.33" height="11.33"/>
				<rect x="22.68" y="34.02" class="st1" width="11.33" height="11.34"/>
				<rect x="22.68" y="22.68" class="st1" width="11.33" height="11.34"/>
				<rect x="22.68" y="11.34" width="11.33" height="11.34"/>
				<rect x="11.34" y="102.05" width="11.34" height="11.34"/>
				<rect x="11.34" y="90.71" width="11.34" height="11.34"/>
				<rect x="11.34" y="79.37" class="st2" width="11.34" height="11.34"/>
				<rect x="11.34" y="68.03" width="11.34" height="11.34"/>
				<rect x="11.34" y="56.69" class="st1" width="11.34" height="11.34"/>
				<rect x="11.34" y="45.36" class="st1" width="11.34" height="11.33"/>
				<rect x="11.34" y="34.02" width="11.34" height="11.34"/>
				<rect x="11.34" y="22.68" width="11.34" height="11.34"/>
				<rect x="0" y="79.37" width="11.34" height="11.34"/>
				<rect x="0" y="68.03" width="11.34" height="11.34"/>
				<rect x="0" y="56.69" width="11.34" height="11.34"/>
				<rect x="0" y="45.36" width="11.34" height="11.33"/>
			</g>
			<g>
			</g>
		</g>
	</g>
</g>
</svg>
