<?xml version="1.0" standalone="no"?>
<!DOCTYPE svg PUBLIC "-//W3C//DTD SVG 20010904//EN"
 "http://www.w3.org/TR/2001/REC-SVG-20010904/DTD/svg10.dtd">
<svg version="1.0" xmlns="http://www.w3.org/2000/svg"
 width="700.000000pt" height="700.000000pt" viewBox="0 0 700.000000 700.000000"
 preserveAspectRatio="xMidYMid meet">
<metadata>
Created by potrace 1.11, written by Peter Selinger 2001-2013
</metadata>
<g transform="translate(0.000000,700.000000) scale(0.100000,-0.100000)"
fill="#000000" stroke="none">
<path d="M2332 6732 c0 -147 -1 -278 -1 -292 l-1 -25 -580 1 c-319 0 -580 -2
-581 -5 0 -3 -1 -134 -2 -291 l-2 -285 -290 -1 -290 -1 -1 -583 0 -584 -292 0
-292 0 2 -1165 3 -1166 290 0 290 0 0 -585 0 -584 300 0 c164 0 295 -1 290 -3
-11 -3 -13 -553 -2 -570 5 -7 190 -10 584 -9 l578 1 -1 -292 -1 -293 1167 0
1167 0 0 286 c0 192 3 288 10 292 6 4 268 7 582 6 l571 -1 1 21 c0 12 1 146 2
298 0 197 4 275 11 270 8 -6 476 -8 557 -3 14 1 15 60 15 581 l-1 580 25 1
c14 1 145 1 293 1 l267 0 0 1167 0 1167 -283 0 c-155 -1 -286 -4 -292 -8 -7
-4 -10 192 -9 583 1 530 -1 589 -15 590 -9 0 -140 1 -292 2 l-276 0 0 291 0
291 -584 0 -584 0 0 290 0 290 -1166 2 -1166 3 -1 -268z"/>
</g>
</svg>
